<svg clip-rule="evenodd" fill-rule="evenodd" stroke-linejoin="round" stroke-miterlimit="2" viewBox="0 0 64 64" xmlns="http://www.w3.org/2000/svg"><path d="m-.0007.0001h64v64h-64z" fill="none"/><g fill-rule="nonzero" transform="matrix(2.07035 0 0 2.07035 -.09528345 -.0942268)"><path d="m28.83 21.17-3.83-3.8.67-.67c.385-.387.385-1.023 0-1.41l-6-6c-.387-.385-1.023-.385-1.41 0l-.79.79-6.76-6.79c-.387-.385-1.023-.385-1.41 0l-4 4-.12.15-4 6c-.264.394-.213.923.12 1.26l3 3c.188.189.443.296.71.296s.522-.107.71-.296l4.28-4.29 2.09 2.09-4.8 4.79c-.385.387-.385 1.023 0 1.41l2 2c.187.191.443.299.71.3.184-.001.364-.053.52-.15l4.33-2.6 2.44 2.45c.387.385 1.023.385 1.41 0l.67-.7 3.79 3.83c.75.75 1.769 1.172 2.83 1.172 2.196 0 4.002-1.806 4.002-4.002 0-1.061-.422-2.08-1.172-2.83zm-18.83-10.59-5 5-1.71-1.71 3.49-5.24 3.22-3.22 6.09 6.09-2.59 2.58zm8 11-2.84-2.84-5 3-.74-.74 9.58-9.59 4.59 4.59zm9.42 3.83c-.375.375-.884.587-1.415.587s-1.04-.212-1.415-.587l-3.8-3.79 2.83-2.83 3.8 3.79c.375.375.587.884.587 1.415s-.212 1.04-.587 1.415z" fill="#c44d58"/><path d="m18.7 23.7 6.97-7c.385-.387.385-1.023 0-1.41l-6-6c-.387-.385-1.023-.385-1.41 0l-10.97 11c-.385.387-.385 1.023 0 1.41l2 2c.187.191.443.299.71.3.184-.001.364-.053.52-.15l4.33-2.6 2.44 2.45c.387.385 1.023.385 1.41 0zm-.7-2.12-2.84-2.84-5 3-.74-.74 9.58-9.59 4.59 4.59z" fill="#88c200"/></g></svg>